All The Episodes Of The Anime " Maken-Ki! (Ep 1-12) " at 480p video quality.

Please seed after you download.



Info
--------------------------------------------------------------------------------

Video
------

ID                                       : 1
Format                                   : AVC
Format/Info                              : Advanced Video Codec
Format profile                           : High@L3.0
Format settings, CABAC                   : Yes
Format settings, ReFrames                : 8 frames
Codec ID                                 : avc1
Codec ID/Info                            : Advanced Video Coding
Duration                                 : 24mn 39s
Bit rate                                 : 160 Kbps
Maximum bit rate                         : 1 413 Kbps
Width                                    : 640 pixels
Height                                   : 360 pixels
Display aspect ratio                     : 16:9
Frame rate mode                          : Constant
Frame rate                               : 23.976 fps
Color space                              : YUV
Chroma subsampling                       : 4:2:0
Bit depth                                : 8 bits
Scan type                                : Progressive
Bits/(Pixel*Frame)                       : 0.029
Stream size                              : 28.2 MiB (70%)
Title                                    : Imported with GPAC 0.4.6-DEV (build 1)
Writing library                          : x264 core 92 r1510 33d382a


Audio
-------

ID                                       : 2
Format                                   : AAC
Format/Info                              : Advanced Audio Codec
Format profile                           : LC
Codec ID                                 : 40
Duration                                 : 24mn 39s
Bit rate mode                            : Variable
Bit rate                                 : 64.0 Kbps
Maximum bit rate                         : 111 Kbps
Channel(s)                               : 2 channels
Channel positions                        : Front: L R
Sampling rate                            : 48.0 KHz
Compression mode                         : Lossy
Stream size                              : 11.3 MiB (28%)
Encoded date                             : UTC 2011-10-06 07:46:37
Tagged date                              : UTC 2011-10-06 07:46:37

----------------------------------------------------------------------------------

Story
------

Takeru Ohyama, a young, normal, perverted minded guy, got accepted and goes to a school that, unknown to him, is where combat and magic is used and taught. Arriving at the school (which was once only for girls), he meets Haruko Amaya, his childhood friend, after three years, Inaho Kushiya, a girl who says she's his fiancée, and Kodama Himegami, a blonde who wants to kill him. Finding out that there are many girls there that just don't like him, he is told that everyone there uses a special magic ability while using an item or weapon called a Maken. Later, he finds that no Maken is acceptable for him and doesn't know what to do, since in this school the students get into duels that showcase their magic and combat power, of which he seemingly has none.

--------

Thank you for downloading :)

Enjoy watching! And Please seed.